<?xml version="1.0" standalone="no"?>
<!DOCTYPE svg PUBLIC "-//W3C//DTD SVG 20010904//EN"
 "http://www.w3.org/TR/2001/REC-SVG-20010904/DTD/svg10.dtd">
<svg version="1.0" xmlns="http://www.w3.org/2000/svg"
 width="258.000000pt" height="258.000000pt" viewBox="0 0 258.000000 258.000000"
 preserveAspectRatio="xMidYMid meet">
<metadata>
Created by potrace 1.11, written by Peter Selinger 2001-2013
</metadata>
<g transform="translate(0.000000,258.000000) scale(0.100000,-0.100000)"
fill="#000000" stroke="none">
<path d="M1145 2560 c-107 -16 -132 -21 -202 -40 -402 -110 -743 -439 -871
-841 -32 -98 -36 -117 -48 -198 -4 -25 -8 -55 -10 -66 -6 -29 -5 -225 0 -255
3 -14 7 -43 10 -65 37 -303 219 -621 466 -814 52 -41 159 -114 170 -116 3 -1
32 -15 65 -31 86 -44 158 -71 250 -94 117 -30 165 -35 320 -35 165 0 221 7
335 41 47 13 94 27 105 29 11 3 69 29 130 60 250 124 450 324 574 572 94 189
132 343 134 543 2 159 -6 238 -32 340 -65 245 -170 429 -341 600 -189 188
-406 304 -665 356 -89 17 -312 25 -390 14z"/>
</g>
</svg>
